<svg width="219" height="255" viewBox="0 0 219 255" fill="none" xmlns="http://www.w3.org/2000/svg">
<path d="M2.76 234.12C3.93333 234.52 5.21333 234.84 6.6 235.08C8.01333 235.293 9.41333 235.4 10.8 235.4C12.6933 235.4 14.0933 235.32 15 235.16C15.9333 234.973 16.5467 234.693 16.84 234.32C17.1333 233.947 17.28 233.467 17.28 232.88C17.28 232.373 17.1733 231.973 16.96 231.68C16.7467 231.387 16.3333 231.16 15.72 231C15.1067 230.813 14.2 230.667 13 230.56L10.36 230.32C8.38667 230.133 6.82667 229.72 5.68 229.08C4.56 228.44 3.76 227.587 3.28 226.52C2.82667 225.427 2.6 224.12 2.6 222.6C2.6 220.787 2.96 219.32 3.68 218.2C4.42667 217.08 5.62667 216.267 7.28 215.76C8.93333 215.227 11.1333 214.96 13.88 214.96C17.4533 214.96 20.4 215.427 22.72 216.36L22.6 221.8L22.48 221.96C19.84 221.027 17.08 220.56 14.2 220.56C12.8133 220.56 11.7467 220.64 11 220.8C10.2533 220.933 9.73333 221.16 9.44 221.48C9.14667 221.8 9 222.253 9 222.84C9 223.427 9.09333 223.867 9.28 224.16C9.49333 224.453 9.90667 224.68 10.52 224.84C11.1333 224.973 12.0267 225.107 13.2 225.24L15.72 225.52C17.8533 225.76 19.4933 226.187 20.64 226.8C21.7867 227.413 22.5733 228.24 23 229.28C23.4533 230.293 23.68 231.533 23.68 233C23.68 234.787 23.2933 236.28 22.52 237.48C21.7733 238.653 20.5467 239.533 18.84 240.12C17.1333 240.707 14.8533 241 12 241C10.1333 241 8.45333 240.907 6.96 240.72C5.46667 240.507 4.01333 240.227 2.6 239.88V234.24L2.76 234.12ZM34.0969 240.64H27.6969V215.32H34.0969V225H43.6969V215.32H50.0969V240.64H43.6969V230.2H34.0969V240.64ZM61.2844 240.64H54.8844V215.32H61.2844V240.64ZM72.4953 240.64H66.0953V215.32H77.3753C79.9086 215.32 81.9353 215.627 83.4553 216.24C84.9753 216.853 86.0686 217.853 86.7353 219.24C87.402 220.627 87.7353 222.507 87.7353 224.88C87.7353 227.12 87.402 228.947 86.7353 230.36C86.0686 231.747 84.9753 232.773 83.4553 233.44C81.9353 234.107 79.9086 234.44 77.3753 234.44H72.4953V240.64ZM76.3353 220.56H72.4953V229.2H76.3353C78.2286 229.2 79.4953 228.88 80.1353 228.24C80.7753 227.6 81.0953 226.48 81.0953 224.88C81.0953 223.36 80.7753 222.267 80.1353 221.6C79.4953 220.907 78.2286 220.56 76.3353 220.56ZM107.454 227.72L114.854 240.64H106.854L102.254 231.68H102.134L97.5344 240.64H89.5344L96.9344 227.72V227.52L90.0144 215.32H97.8944L102.134 224.12H102.254L106.494 215.32H114.374L107.454 227.52V227.72ZM118.009 240.64V215.32H129.089C131.303 215.32 133.156 215.507 134.649 215.88C136.143 216.227 137.343 216.853 138.249 217.76C139.156 218.667 139.809 219.933 140.209 221.56C140.609 223.16 140.809 225.227 140.809 227.76C140.809 230.4 140.609 232.56 140.209 234.24C139.809 235.92 139.156 237.227 138.249 238.16C137.343 239.093 136.143 239.747 134.649 240.12C133.156 240.467 131.303 240.64 129.089 240.64H118.009ZM128.169 220.72H124.409V235.24H128.169C129.716 235.24 130.929 235.067 131.809 234.72C132.716 234.373 133.356 233.667 133.729 232.6C134.129 231.533 134.329 229.92 134.329 227.76C134.329 225.707 134.129 224.187 133.729 223.2C133.356 222.187 132.716 221.52 131.809 221.2C130.929 220.88 129.716 220.72 128.169 220.72ZM168.006 240.52V240.64H161.206C161.02 240 160.793 239.267 160.526 238.44C160.286 237.613 160.02 236.733 159.726 235.8H151.086C150.553 237.667 150.06 239.28 149.606 240.64H142.806V240.56L151.006 215.32H159.806L168.006 240.52ZM155.326 219.88C155.06 221.24 154.673 222.893 154.166 224.84C153.66 226.787 153.126 228.773 152.566 230.8H158.286C157.7 228.773 157.153 226.787 156.646 224.84C156.14 222.893 155.753 221.24 155.486 219.88H155.326ZM176.022 240.64V220.72H168.822V215.32H189.622V220.72H182.422V240.64H176.022ZM215.623 240.52V240.64H208.823C208.637 240 208.41 239.267 208.143 238.44C207.903 237.613 207.637 236.733 207.343 235.8H198.703C198.17 237.667 197.677 239.28 197.223 240.64H190.423V240.56L198.623 215.32H207.423L215.623 240.52ZM202.943 219.88C202.677 221.24 202.29 222.893 201.783 224.84C201.277 226.787 200.743 228.773 200.183 230.8H205.903C205.317 228.773 204.77 226.787 204.263 224.84C203.757 222.893 203.37 221.24 203.103 219.88H202.943Z" fill="#020202"/>
<path d="M135.268 178.05L208.87 178.05L209.865 174.071C188.646 145.559 146.01 88.335 145.215 87.5393C144.419 86.7436 121.012 124.34 109.408 143.238L135.268 178.05Z" fill="black" fill-opacity="0.2"/>
<path d="M155.307 95.353L139.393 95.353L139.393 79.4391L155.307 79.4391L155.307 95.353Z" fill="black"/>
<path d="M117.365 151.183L101.452 151.183L101.452 135.269L117.365 135.269L117.365 151.183Z" fill="black"/>
<path d="M89.5159 185L77.5804 185L77.5804 173.065L89.5159 173.065L89.5159 185Z" fill="black"/>
<path d="M19.4846 184.359L10.4915 184.359L10.4915 173.867L19.4846 173.867L19.4846 184.359Z" fill="black"/>
<path d="M141.236 185L129.3 185L129.3 173.065L141.236 173.065L141.236 185Z" fill="black"/>
<path d="M218.816 185L206.88 185L206.88 173.065L218.816 173.065L218.816 185Z" fill="black"/>
<path fill-rule="evenodd" clip-rule="evenodd" d="M13.4893 176.865L80.9377 176.865L80.9377 181.361L13.4893 181.361L13.4893 176.865Z" fill="black"/>
<path fill-rule="evenodd" clip-rule="evenodd" d="M139.247 177.043L206.881 177.043L206.881 181.021L139.247 181.021L139.247 177.043Z" fill="black"/>
<path fill-rule="evenodd" clip-rule="evenodd" d="M115.752 147.374L135.644 173.234L130.914 176.873L111.021 151.013L115.752 147.374Z" fill="black"/>
<path fill-rule="evenodd" clip-rule="evenodd" d="M82.9013 177.908L145.562 86.403L148.845 88.6509L86.1839 180.156L82.9013 177.908Z" fill="black"/>
<path fill-rule="evenodd" clip-rule="evenodd" d="M107.94 139.582L144.741 85.8412L149.665 89.213L112.864 142.954L107.94 139.582Z" fill="black"/>
<path fill-rule="evenodd" clip-rule="evenodd" d="M210.465 177.843L143.825 89.3217L148.593 85.7325L215.233 174.254L210.465 177.843Z" fill="black"/>
<path d="M81.559 5.96753H7.95702L6.9624 9.94601C28.181 38.4585 70.8171 95.6824 71.6128 96.4781C72.4085 97.2738 95.8152 59.6771 107.419 40.7793L81.559 5.96753Z" fill="black" fill-opacity="0.2"/>
<path d="M64.4512 88.4326H80.3651V104.347H64.4512V88.4326Z" fill="black"/>
<path d="M101.452 33.8171H117.366V49.7311H101.452V33.8171Z" fill="black"/>
<path d="M129.301 0H141.236V11.9355H129.301V0Z" fill="black"/>
<path d="M199.348 0H208.341V10.492H199.348V0Z" fill="black"/>
<path d="M77.5808 0H89.5163V11.9355H77.5808V0Z" fill="black"/>
<path d="M0.000244141 0H11.9357V11.9355H0.000244141V0Z" fill="black"/>
<path fill-rule="evenodd" clip-rule="evenodd" d="M205.343 7.49437H137.895V2.9978H205.343V7.49437Z" fill="black"/>
<path fill-rule="evenodd" clip-rule="evenodd" d="M79.57 7.957H11.9358V3.97852H79.57V7.957Z" fill="black"/>
<path fill-rule="evenodd" clip-rule="evenodd" d="M103.065 37.6257L83.1721 11.7655L87.9023 8.12695L107.795 33.9871L103.065 37.6257Z" fill="black"/>
<path fill-rule="evenodd" clip-rule="evenodd" d="M135.916 7.09136L73.2548 98.5965L69.9722 96.3487L132.633 4.84351L135.916 7.09136Z" fill="black"/>
<path fill-rule="evenodd" clip-rule="evenodd" d="M110.876 45.4175L74.0748 99.1586L69.1509 95.7868L105.952 42.0457L110.876 45.4175Z" fill="black"/>
<path fill-rule="evenodd" clip-rule="evenodd" d="M8.35246 7.15698L74.9921 95.6783L70.2243 99.2675L3.58472 10.7462L8.35246 7.15698Z" fill="black"/>
</svg>
